<svg width="198" height="42" viewBox="0 0 198 42" fill="none" xmlns="http://www.w3.org/2000/svg">
<path d="M23.832 28.56C23.832 27.664 23.512 27.216 22.872 27.216C21.592 27.216 20.0773 28.4107 18.328 30.8C16.5787 33.1467 14.9573 36.5173 13.464 40.912C13.3787 41.168 13.016 41.424 12.376 41.68C11.7787 41.8933 11.2027 42 10.648 42C10.136 42 9.944 41.808 10.072 41.424C10.328 40.656 10.6693 39.696 11.096 38.544C11.5653 37.392 11.992 36.2187 12.376 35.024C12.8027 33.7867 13.1653 32.6347 13.464 31.568C13.7627 30.4587 13.912 29.6053 13.912 29.008C13.912 27.856 13.5493 27.28 12.824 27.28C11.7147 27.28 10.3067 28.432 8.6 30.736C6.936 32.9973 5.31467 36.3893 3.736 40.912C3.65067 41.168 3.30933 41.424 2.712 41.68C2.11467 41.8933 1.58133 42 1.112 42C0.898667 42 0.728 41.9573 0.6 41.872C0.472 41.7867 0.450667 41.6373 0.536 41.424C0.877333 40.4853 1.24 39.4613 1.624 38.352C2.008 37.2 2.392 36.048 2.776 34.896C3.16 33.744 3.50133 32.6133 3.8 31.504C4.14133 30.3947 4.44 29.3493 4.696 28.368C4.824 27.6 4.696 27.216 4.312 27.216C3.97067 27.216 3.56533 27.4507 3.096 27.92C2.62667 28.3893 2.15733 28.944 1.688 29.584C1.56 29.6693 1.432 29.6693 1.304 29.584C1.176 29.456 1.15467 29.328 1.24 29.2C1.88 28.2187 2.648 27.3867 3.544 26.704C4.44 25.9787 5.4 25.616 6.424 25.616C7.10667 25.616 7.55467 25.8293 7.768 26.256C8.024 26.6827 8.088 27.1947 7.96 27.792C7.78933 28.7307 7.61867 29.52 7.448 30.16C7.27733 30.8 7.04267 31.5253 6.744 32.336C7.85333 30.3733 9.06933 28.7733 10.392 27.536C11.7573 26.256 13.208 25.616 14.744 25.616C15.512 25.616 16.088 25.8293 16.472 26.256C16.8987 26.6827 17.112 27.1947 17.112 27.792C17.112 29.456 16.8133 31.1413 16.216 32.848C17.5813 30.5013 18.904 28.7093 20.184 27.472C21.5067 26.2347 23.0853 25.616 24.92 25.616C25.7733 25.616 26.3707 25.8507 26.712 26.32C27.096 26.7467 27.288 27.1947 27.288 27.664C27.288 28.3893 27.1173 29.2 26.776 30.096C26.4773 30.9493 26.1147 31.8667 25.688 32.848C25.304 33.7867 24.9413 34.7467 24.6 35.728C24.3013 36.6667 24.152 37.584 24.152 38.48C24.152 39.5467 24.4933 40.08 25.176 40.08C25.8587 40.08 26.776 39.376 27.928 37.968C28.056 37.8827 28.1627 37.904 28.248 38.032C28.376 38.16 28.3973 38.3093 28.312 38.48C27.4587 39.5467 26.584 40.4 25.688 41.04C24.792 41.68 23.9173 42 23.064 42C21.656 42 20.952 41.1893 20.952 39.568C20.952 38.544 21.1013 37.52 21.4 36.496C21.6987 35.4293 22.0187 34.4267 22.36 33.488C22.744 32.5067 23.0853 31.5893 23.384 30.736C23.6827 29.8827 23.832 29.1573 23.832 28.56ZM38.7385 22.864C38.6105 22.992 38.4612 22.992 38.2905 22.864C38.1625 22.736 38.0558 22.5653 37.9705 22.352C37.8852 22.096 37.8425 21.84 37.8425 21.584C37.8425 21.2853 37.9065 21.0293 38.0345 20.816C38.5038 20.2187 39.1865 19.472 40.0825 18.576C41.0212 17.6373 41.9812 16.848 42.9625 16.208C43.0478 16.1653 43.1545 16.208 43.2825 16.336C43.4105 16.4213 43.4532 16.5067 43.4105 16.592C42.5145 17.4027 41.6612 18.384 40.8505 19.536C40.0398 20.6453 39.3358 21.7547 38.7385 22.864ZM31.8905 30.096C31.7625 30.1813 31.6558 30.16 31.5705 30.032C31.4852 29.8613 31.4638 29.712 31.5065 29.584C33.0852 28.304 35.2825 26.9813 38.0985 25.616C38.4398 25.616 38.6105 25.808 38.6105 26.192C38.0558 27.1733 37.5012 28.24 36.9465 29.392C36.4345 30.544 35.9652 31.696 35.5385 32.848C35.1545 33.9573 34.8345 35.0453 34.5785 36.112C34.3225 37.136 34.1945 37.9893 34.1945 38.672C34.1945 39.5253 34.4932 39.952 35.0905 39.952C35.5598 39.952 36.0078 39.76 36.4345 39.376C36.9038 38.9493 37.4372 38.416 38.0345 37.776C38.1198 37.6907 38.2265 37.712 38.3545 37.84C38.4825 37.9253 38.5038 38.0747 38.4185 38.288C37.4798 39.3973 36.5412 40.2933 35.6025 40.976C34.7065 41.6587 33.8318 42 32.9785 42C31.4852 42 30.7385 41.296 30.7385 39.888C30.7385 39.12 30.8452 38.224 31.0585 37.2C31.3145 36.1333 31.6345 35.0667 32.0185 34C32.4452 32.8907 32.8932 31.824 33.3625 30.8C33.8745 29.7333 34.3865 28.816 34.8985 28.048C34.4292 28.304 33.8958 28.624 33.2985 29.008C32.7438 29.392 32.2745 29.7547 31.8905 30.096ZM59.2835 37.52C59.3688 37.4347 59.4755 37.456 59.6035 37.584C59.7315 37.6693 59.7742 37.7973 59.7315 37.968C58.9635 39.0347 58.0675 39.9733 57.0435 40.784C56.0622 41.5947 55.0808 42 54.0995 42C53.3742 42 52.7982 41.7653 52.3715 41.296C51.9875 40.8267 51.7955 40.208 51.7955 39.44C51.7955 37.9467 52.0515 36.3253 52.5635 34.576C53.1182 32.8267 53.8435 31.056 54.7395 29.264C54.8675 28.9653 54.9315 28.6453 54.9315 28.304C54.9315 27.8773 54.7395 27.664 54.3555 27.664C52.7768 27.664 51.0275 28.752 49.1075 30.928C47.1875 33.0613 45.4168 36.4747 43.7955 41.168C43.7528 41.296 43.6035 41.424 43.3475 41.552C43.1342 41.6373 42.8782 41.7227 42.5795 41.808C42.2808 41.8507 41.9822 41.8933 41.6835 41.936C41.3848 41.9787 41.1502 42 40.9795 42C40.7662 42 40.5955 41.9573 40.4675 41.872C40.3822 41.7867 40.3822 41.6373 40.4675 41.424C41.1928 39.5893 41.9182 37.584 42.6435 35.408C43.4115 33.1893 44.0728 30.9707 44.6275 28.752C44.7555 28.3253 44.7768 28.0267 44.6915 27.856C44.6062 27.6427 44.4568 27.536 44.2435 27.536C43.7742 27.536 43.3262 27.7493 42.8995 28.176C42.4728 28.56 42.0888 28.9867 41.7475 29.456C41.6195 29.5413 41.4915 29.52 41.3635 29.392C41.2782 29.264 41.2568 29.136 41.2995 29.008C41.5128 28.7093 41.7902 28.368 42.1315 27.984C42.5155 27.6 42.9422 27.2373 43.4115 26.896C43.8808 26.512 44.3715 26.2133 44.8835 26C45.3955 25.744 45.9075 25.616 46.4195 25.616C47.1448 25.616 47.6142 25.8507 47.8275 26.32C48.0835 26.7467 48.1475 27.28 48.0195 27.92C47.8062 28.8587 47.5715 29.7547 47.3155 30.608C47.1022 31.4187 46.8248 32.336 46.4835 33.36C46.9955 32.4213 47.6142 31.504 48.3395 30.608C49.1075 29.6693 49.9395 28.8373 50.8355 28.112C51.7742 27.344 52.7768 26.7467 53.8435 26.32C54.9102 25.8507 56.0408 25.616 57.2355 25.616C57.7475 25.616 58.1315 25.744 58.3875 26C58.6862 26.256 58.8355 26.5547 58.8355 26.896C58.8355 27.4933 58.6862 28.0267 58.3875 28.496C57.4915 30.1173 56.7235 31.8027 56.0835 33.552C55.4862 35.2587 55.1875 36.7947 55.1875 38.16C55.1875 39.2693 55.5502 39.824 56.2755 39.824C56.7448 39.824 57.2142 39.632 57.6835 39.248C58.1528 38.864 58.6862 38.288 59.2835 37.52ZM69.9885 22.864C69.8605 22.992 69.7112 22.992 69.5405 22.864C69.4125 22.736 69.3058 22.5653 69.2205 22.352C69.1352 22.096 69.0925 21.84 69.0925 21.584C69.0925 21.2853 69.1565 21.0293 69.2845 20.816C69.7538 20.2187 70.4365 19.472 71.3325 18.576C72.2712 17.6373 73.2312 16.848 74.2125 16.208C74.2978 16.1653 74.4045 16.208 74.5325 16.336C74.6605 16.4213 74.7032 16.5067 74.6605 16.592C73.7645 17.4027 72.9112 18.384 72.1005 19.536C71.2898 20.6453 70.5858 21.7547 69.9885 22.864ZM63.1405 30.096C63.0125 30.1813 62.9058 30.16 62.8205 30.032C62.7352 29.8613 62.7138 29.712 62.7565 29.584C64.3352 28.304 66.5325 26.9813 69.3485 25.616C69.6898 25.616 69.8605 25.808 69.8605 26.192C69.3058 27.1733 68.7512 28.24 68.1965 29.392C67.6845 30.544 67.2152 31.696 66.7885 32.848C66.4045 33.9573 66.0845 35.0453 65.8285 36.112C65.5725 37.136 65.4445 37.9893 65.4445 38.672C65.4445 39.5253 65.7432 39.952 66.3405 39.952C66.8098 39.952 67.2578 39.76 67.6845 39.376C68.1538 38.9493 68.6872 38.416 69.2845 37.776C69.3698 37.6907 69.4765 37.712 69.6045 37.84C69.7325 37.9253 69.7538 38.0747 69.6685 38.288C68.7298 39.3973 67.7912 40.2933 66.8525 40.976C65.9565 41.6587 65.0818 42 64.2285 42C62.7352 42 61.9885 41.296 61.9885 39.888C61.9885 39.12 62.0952 38.224 62.3085 37.2C62.5645 36.1333 62.8845 35.0667 63.2685 34C63.6952 32.8907 64.1432 31.824 64.6125 30.8C65.1245 29.7333 65.6365 28.816 66.1485 28.048C65.6792 28.304 65.1458 28.624 64.5485 29.008C63.9938 29.392 63.5245 29.7547 63.1405 30.096ZM81.8935 25.616C83.3868 25.616 84.4962 26.064 85.2215 26.96C85.9468 27.856 86.3095 28.9013 86.3095 30.096C86.3095 31.76 85.9682 33.3173 85.2855 34.768C84.6455 36.176 83.8348 37.4347 82.8535 38.544C81.9148 39.6107 80.8908 40.464 79.7815 41.104C78.6722 41.7013 77.6695 42 76.7735 42C75.3228 42 74.2135 41.5733 73.4455 40.72C72.7202 39.824 72.3575 38.6933 72.3575 37.328C72.3575 36.0907 72.6135 34.7893 73.1255 33.424C73.6802 32.0587 74.3842 30.8 75.2375 29.648C76.1335 28.496 77.1575 27.536 78.3095 26.768C79.4615 26 80.6562 25.616 81.8935 25.616ZM78.3735 40.016C79.6962 40.016 80.8055 39.3333 81.7015 37.968C82.6402 36.56 83.1095 34.64 83.1095 32.208C83.1095 30.928 82.8535 29.8613 82.3415 29.008C81.8295 28.1547 81.0828 27.728 80.1015 27.728C78.7362 27.728 77.6268 28.3893 76.7735 29.712C75.9202 31.0347 75.4935 32.976 75.4935 35.536C75.4935 37.0293 75.7495 38.16 76.2615 38.928C76.8162 39.6533 77.5202 40.016 78.3735 40.016ZM107.034 37.52C107.119 37.4347 107.226 37.456 107.354 37.584C107.482 37.6693 107.524 37.7973 107.482 37.968C106.714 39.0347 105.818 39.9733 104.794 40.784C103.812 41.5947 102.831 42 101.85 42C101.124 42 100.548 41.7653 100.122 41.296C99.7375 40.8267 99.5455 40.208 99.5455 39.44C99.5455 37.9467 99.8015 36.3253 100.314 34.576C100.868 32.8267 101.594 31.056 102.49 29.264C102.618 28.9653 102.682 28.6453 102.682 28.304C102.682 27.8773 102.49 27.664 102.106 27.664C100.527 27.664 98.7775 28.752 96.8575 30.928C94.9375 33.0613 93.1668 36.4747 91.5455 41.168C91.5028 41.296 91.3535 41.424 91.0975 41.552C90.8842 41.6373 90.6282 41.7227 90.3295 41.808C90.0308 41.8507 89.7322 41.8933 89.4335 41.936C89.1348 41.9787 88.9002 42 88.7295 42C88.5162 42 88.3455 41.9573 88.2175 41.872C88.1322 41.7867 88.1322 41.6373 88.2175 41.424C88.9428 39.5893 89.6682 37.584 90.3935 35.408C91.1615 33.1893 91.8228 30.9707 92.3775 28.752C92.5055 28.3253 92.5268 28.0267 92.4415 27.856C92.3562 27.6427 92.2068 27.536 91.9935 27.536C91.5242 27.536 91.0762 27.7493 90.6495 28.176C90.2228 28.56 89.8388 28.9867 89.4975 29.456C89.3695 29.5413 89.2415 29.52 89.1135 29.392C89.0282 29.264 89.0068 29.136 89.0495 29.008C89.2628 28.7093 89.5402 28.368 89.8815 27.984C90.2655 27.6 90.6922 27.2373 91.1615 26.896C91.6308 26.512 92.1215 26.2133 92.6335 26C93.1455 25.744 93.6575 25.616 94.1695 25.616C94.8948 25.616 95.3642 25.8507 95.5775 26.32C95.8335 26.7467 95.8975 27.28 95.7695 27.92C95.5562 28.8587 95.3215 29.7547 95.0655 30.608C94.8522 31.4187 94.5748 32.336 94.2335 33.36C94.7455 32.4213 95.3642 31.504 96.0895 30.608C96.8575 29.6693 97.6895 28.8373 98.5855 28.112C99.5242 27.344 100.527 26.7467 101.594 26.32C102.66 25.8507 103.791 25.616 104.986 25.616C105.498 25.616 105.882 25.744 106.138 26C106.436 26.256 106.586 26.5547 106.586 26.896C106.586 27.4933 106.436 28.0267 106.138 28.496C105.242 30.1173 104.474 31.8027 103.833 33.552C103.236 35.2587 102.938 36.7947 102.938 38.16C102.938 39.2693 103.3 39.824 104.026 39.824C104.495 39.824 104.964 39.632 105.434 39.248C105.903 38.864 106.436 38.288 107.034 37.52Z" fill="#1E1E1E"/>
<path d="M110.763 33.616C110.763 31.7813 111.232 30.224 112.171 28.944C113.152 27.664 114.475 26.6827 116.139 26C116.352 25.9147 116.501 25.9787 116.587 26.192C116.672 26.4053 116.651 26.5973 116.523 26.768C115.755 27.1947 115.136 27.856 114.667 28.752C114.24 29.648 114.027 30.736 114.027 32.016C114.027 34.6187 114.987 36.6667 116.907 38.16C118.827 39.6533 121.323 40.4 124.395 40.4C128.405 40.4 131.264 39.6107 132.971 38.032C134.72 36.4533 135.595 34.384 135.595 31.824C135.595 29.4347 135.104 27.344 134.123 25.552C133.141 23.7173 132.053 22.0107 130.859 20.432C129.707 18.8107 128.64 17.1893 127.659 15.568C126.677 13.9467 126.187 12.112 126.187 10.064C126.187 8.86933 126.443 7.71733 126.955 6.608C127.509 5.49866 128.256 4.51733 129.195 3.664C130.176 2.768 131.328 2.064 132.651 1.552C133.973 1.04 135.424 0.783997 137.003 0.783997C139.179 0.783997 140.885 1.25333 142.123 2.192C143.403 3.088 144.043 4.176 144.043 5.456C144.043 6.18133 143.723 7.07733 143.083 8.144C142.485 9.168 141.867 10.064 141.227 10.832C141.056 10.9173 140.907 10.896 140.779 10.768C140.651 10.64 140.608 10.4907 140.651 10.32C140.864 9.97867 141.035 9.57333 141.163 9.104C141.333 8.592 141.419 8.03733 141.419 7.44C141.419 6.75733 141.269 6.11733 140.971 5.52C140.672 4.88 140.245 4.34666 139.691 3.92C139.136 3.45067 138.496 3.088 137.771 2.832C137.045 2.53333 136.277 2.384 135.467 2.384C133.333 2.384 131.776 2.896 130.795 3.92C129.813 4.944 129.323 6.26666 129.323 7.888C129.323 9.168 129.557 10.384 130.027 11.536C130.539 12.6453 131.157 13.776 131.883 14.928C132.608 16.0373 133.376 17.168 134.187 18.32C135.04 19.4293 135.829 20.6027 136.555 21.84C137.28 23.0347 137.877 24.3147 138.347 25.68C138.859 27.0027 139.115 28.4533 139.115 30.032C139.115 31.696 138.688 33.2533 137.835 34.704C137.024 36.1547 135.893 37.4347 134.443 38.544C132.992 39.6107 131.307 40.464 129.387 41.104C127.467 41.7013 125.397 42 123.179 42C119.125 42 116.032 41.2107 113.899 39.632C111.808 38.0533 110.763 36.048 110.763 33.616ZM154.583 25.936C154.796 26.0213 154.882 26.1493 154.839 26.32C154.796 26.448 154.604 26.5547 154.263 26.64C153.623 26.64 152.876 26.6613 152.023 26.704C151.212 26.7467 150.338 26.8107 149.399 26.896C148.546 28.9867 147.842 31.0347 147.287 33.04C146.732 35.0027 146.455 36.6027 146.455 37.84C146.455 39.2907 147.01 40.016 148.119 40.016C149.228 40.016 150.466 39.056 151.831 37.136C151.959 37.0507 152.066 37.0507 152.151 37.136C152.279 37.2213 152.322 37.3707 152.279 37.584C151.554 38.7787 150.636 39.824 149.527 40.72C148.418 41.5733 147.33 42 146.263 42C145.154 42 144.322 41.744 143.767 41.232C143.255 40.6773 142.999 39.9307 142.999 38.992C142.999 37.7547 143.298 36.048 143.895 33.872C144.492 31.696 145.26 29.4773 146.199 27.216C145.09 27.344 144.066 27.5147 143.127 27.728C142.914 27.6853 142.85 27.5787 142.935 27.408C143.063 27.2373 143.255 27.0667 143.511 26.896C143.81 26.6827 144.151 26.512 144.535 26.384C144.919 26.2133 145.282 26.128 145.623 26.128C145.794 26.128 145.964 26.128 146.135 26.128C146.306 26.128 146.476 26.1067 146.647 26.064C147.202 24.8267 147.778 23.632 148.375 22.48C148.972 21.328 149.57 20.2827 150.167 19.344C150.423 19.0453 150.764 18.7893 151.191 18.576C151.66 18.32 152.108 18.128 152.535 18C152.962 17.872 153.303 17.808 153.559 17.808C153.858 17.7653 153.986 17.8293 153.943 18C153.218 19.1093 152.492 20.3467 151.767 21.712C151.084 23.0773 150.423 24.5067 149.783 26C150.594 25.9573 151.404 25.936 152.215 25.936C153.068 25.936 153.858 25.936 154.583 25.936ZM163.769 25.616C165.262 25.616 166.371 26.064 167.097 26.96C167.822 27.856 168.185 28.9013 168.185 30.096C168.185 31.76 167.843 33.3173 167.161 34.768C166.521 36.176 165.71 37.4347 164.729 38.544C163.79 39.6107 162.766 40.464 161.657 41.104C160.547 41.7013 159.545 42 158.649 42C157.198 42 156.089 41.5733 155.321 40.72C154.595 39.824 154.233 38.6933 154.233 37.328C154.233 36.0907 154.489 34.7893 155.001 33.424C155.555 32.0587 156.259 30.8 157.113 29.648C158.009 28.496 159.033 27.536 160.185 26.768C161.337 26 162.531 25.616 163.769 25.616ZM160.249 40.016C161.571 40.016 162.681 39.3333 163.577 37.968C164.515 36.56 164.985 34.64 164.985 32.208C164.985 30.928 164.729 29.8613 164.217 29.008C163.705 28.1547 162.958 27.728 161.977 27.728C160.611 27.728 159.502 28.3893 158.649 29.712C157.795 31.0347 157.369 32.976 157.369 35.536C157.369 37.0293 157.625 38.16 158.137 38.928C158.691 39.6533 159.395 40.016 160.249 40.016ZM177.517 27.472C177.517 28.112 177.453 28.8373 177.325 29.648C177.197 30.4587 177.026 31.2907 176.812 32.144C177.666 30.096 178.605 28.496 179.629 27.344C180.653 26.192 181.762 25.616 182.957 25.616C183.597 25.616 184.087 25.7653 184.429 26.064C184.77 26.3627 184.941 26.7467 184.941 27.216C184.941 27.6427 184.77 28.1973 184.429 28.88C184.13 29.5627 183.874 30.032 183.661 30.288C183.575 30.3307 183.49 30.3307 183.405 30.288C183.319 30.2027 183.277 30.1173 183.277 30.032C183.277 29.7333 183.149 29.4773 182.893 29.264C182.679 29.0507 182.338 28.944 181.869 28.944C180.375 28.944 179.01 29.968 177.773 32.016C176.578 34.0213 175.469 36.9227 174.445 40.72C174.402 40.9333 174.253 41.1253 173.997 41.296C173.741 41.424 173.442 41.552 173.101 41.68C172.802 41.7653 172.482 41.8507 172.141 41.936C171.799 41.9787 171.501 42 171.245 42C170.775 42 170.647 41.744 170.861 41.232C171.245 40.336 171.607 39.376 171.949 38.352C172.333 37.2853 172.674 36.2187 172.973 35.152C173.271 34.0853 173.527 33.0613 173.741 32.08C173.954 31.056 174.125 30.1173 174.253 29.264C174.338 28.624 174.359 28.1333 174.317 27.792C174.317 27.4507 174.146 27.28 173.805 27.28C173.378 27.28 172.93 27.472 172.461 27.856C172.034 28.1973 171.629 28.6453 171.245 29.2C171.074 29.328 170.903 29.3493 170.733 29.264C170.605 29.136 170.583 28.9867 170.669 28.816C170.925 28.4747 171.223 28.1333 171.565 27.792C171.949 27.408 172.354 27.0667 172.781 26.768C173.25 26.4267 173.719 26.1493 174.189 25.936C174.701 25.7227 175.213 25.616 175.725 25.616C176.407 25.616 176.877 25.7867 177.133 26.128C177.389 26.4267 177.517 26.8747 177.517 27.472ZM197.543 28.816C197.543 31.248 194.322 32.912 187.879 33.808C187.836 34.2347 187.794 34.6613 187.751 35.088C187.751 35.5147 187.751 35.9627 187.751 36.432C187.751 37.5413 188.007 38.3947 188.519 38.992C189.031 39.5893 189.842 39.888 190.951 39.888C191.762 39.888 192.594 39.6533 193.447 39.184C194.3 38.7147 194.983 38.1173 195.495 37.392C195.666 37.3067 195.794 37.3493 195.879 37.52C195.964 37.648 195.986 37.7973 195.943 37.968C195.09 39.0773 194.002 40.0373 192.679 40.848C191.399 41.616 190.012 42 188.519 42C187.026 42 185.938 41.6373 185.255 40.912C184.615 40.144 184.295 39.0773 184.295 37.712C184.295 36.3893 184.572 35.024 185.127 33.616C185.682 32.1653 186.386 30.8427 187.239 29.648C188.135 28.4533 189.138 27.4933 190.247 26.768C191.399 26 192.551 25.616 193.703 25.616C194.855 25.616 195.772 25.9573 196.455 26.64C197.18 27.28 197.543 28.0053 197.543 28.816ZM191.975 27.28C190.994 27.28 190.14 27.7493 189.415 28.688C188.732 29.584 188.263 30.992 188.007 32.912C190.055 32.6987 191.57 32.3147 192.551 31.76C193.532 31.1627 194.023 30.4373 194.023 29.584C194.023 28.944 193.831 28.4107 193.447 27.984C193.063 27.5147 192.572 27.28 191.975 27.28Z" fill="#5F4435"/>
</svg>
